<?xml version="1.0" encoding="UTF-8" standalone="no"?>
<!-- Created with Inkscape (http://www.inkscape.org/) -->

<svg
   xmlns:dc="http://purl.org/dc/elements/1.1/"
   xmlns:cc="http://creativecommons.org/ns#"
   xmlns:rdf="http://www.w3.org/1999/02/22-rdf-syntax-ns#"
   xmlns:svg="http://www.w3.org/2000/svg"
   xmlns="http://www.w3.org/2000/svg"
   xmlns:xlink="http://www.w3.org/1999/xlink"
   xmlns:sodipodi="http://sodipodi.sourceforge.net/DTD/sodipodi-0.dtd"
   xmlns:inkscape="http://www.inkscape.org/namespaces/inkscape"
   width="160"
   height="160"
   viewBox="0 0 42.333333 42.333334"
   version="1.1"
   id="svg8"
   inkscape:version="0.92.1 r15371"
   sodipodi:docname="logo.svg"
   inkscape:export-filename="C:\wamp\www\criagenda\rsc\graphics\git-banner.png"
   inkscape:export-xdpi="237"
   inkscape:export-ydpi="237">
  <defs
     id="defs2">
    <linearGradient
       inkscape:collect="always"
       id="linearGradient4771">
      <stop
         style="stop-color:#3dbeef;stop-opacity:1;"
         offset="0"
         id="stop4767" />
      <stop
         style="stop-color:#3dbeef;stop-opacity:0;"
         offset="1"
         id="stop4769" />
    </linearGradient>
    <linearGradient
       inkscape:collect="always"
       xlink:href="#linearGradient4771"
       id="linearGradient4773"
       x1="163.71094"
       y1="216.38866"
       x2="163.42984"
       y2="296.496"
       gradientUnits="userSpaceOnUse"
       gradientTransform="matrix(0.16028954,0,0,0.52483012,-0.03830061,141.25088)" />
  </defs>
  <sodipodi:namedview
     id="base"
     pagecolor="#ffffff"
     bordercolor="#666666"
     borderopacity="1.0"
     inkscape:pageopacity="0.0"
     inkscape:pageshadow="2"
     inkscape:zoom="2.8"
     inkscape:cx="-6.6422714"
     inkscape:cy="88.049516"
     inkscape:document-units="mm"
     inkscape:current-layer="layer1"
     showgrid="false"
     units="px"
     inkscape:window-width="1920"
     inkscape:window-height="990"
     inkscape:window-x="-11"
     inkscape:window-y="-11"
     inkscape:window-maximized="1" />
  <metadata
     id="metadata5">
    <rdf:RDF>
      <cc:Work
         rdf:about="">
        <dc:format>image/svg+xml</dc:format>
        <dc:type
           rdf:resource="http://purl.org/dc/dcmitype/StillImage" />
        <dc:title />
      </cc:Work>
    </rdf:RDF>
  </metadata>
  <g
     inkscape:label="Camada 1"
     inkscape:groupmode="layer"
     id="layer1"
     transform="translate(0,-254.66665)">
    <path
       style="fill:#000000;stroke-width:0.26458332"
       d=""
       id="path4675"
       inkscape:connector-curvature="0" />
    <path
       style="fill:#000000;stroke-width:0.26458332"
       d=""
       id="path4690"
       inkscape:connector-curvature="0" />
    <path
       style="fill:#000000;stroke-width:0.26458332"
       d=""
       id="path4688"
       inkscape:connector-curvature="0" />
    <g
       id="g4633">
      <rect
         style="opacity:0.98999999;fill:#ffffff;fill-opacity:1;stroke:none;stroke-width:0.13862798;stroke-linecap:round;stroke-linejoin:miter;stroke-miterlimit:3.9000001;stroke-dasharray:none;stroke-dashoffset:0;stroke-opacity:1;paint-order:normal"
         id="rect5181"
         width="42.333332"
         height="42.333332"
         x="6.357829e-007"
         y="254.66666" />
      <rect
         y="254.66666"
         x="6.357829e-007"
         height="42.333332"
         width="42.333332"
         id="rect4765"
         style="opacity:0.98999999;fill:url(#linearGradient4773);fill-opacity:1;stroke:none;stroke-width:0.13862798;stroke-linecap:round;stroke-linejoin:miter;stroke-miterlimit:3.9000001;stroke-dasharray:none;stroke-dashoffset:0;stroke-opacity:1;paint-order:normal" />
      <g
         transform="translate(102.44359,-97.278024)"
         id="g5142">
        <path
           id="path11237"
           d="m -84.202433,353.20017 a 3.16172,9.6592229 0 0 0 -0.07767,0.008 3.16172,9.6592229 0 0 0 -2.947698,7.87417 h 1.715032 a 3.16172,9.6592229 0 0 1 2.247566,-7.51408 3.16172,9.6592229 0 0 0 -0.937229,-0.36829 z"
           style="opacity:0.98999999;fill:#808080;fill-opacity:1;stroke:none;stroke-width:2.88242722;stroke-linecap:round;stroke-linejoin:miter;stroke-miterlimit:4;stroke-dasharray:none;stroke-dashoffset:3.77952766;stroke-opacity:1;paint-order:normal"
           inkscape:connector-curvature="0" />
        <path
           inkscape:connector-curvature="0"
           style="opacity:0.98999999;fill:#808080;fill-opacity:1;stroke:none;stroke-width:2.88242722;stroke-linecap:round;stroke-linejoin:miter;stroke-miterlimit:4;stroke-dasharray:none;stroke-dashoffset:3.77952766;stroke-opacity:1;paint-order:normal"
           d="m -74.919085,353.20017 a 3.16172,9.6592229 0 0 0 -0.07767,0.008 3.16172,9.6592229 0 0 0 -2.947699,7.87417 h 1.715033 a 3.16172,9.6592229 0 0 1 2.247566,-7.51408 3.16172,9.6592229 0 0 0 -0.937229,-0.36829 z"
           id="path11239" />
        <path
           inkscape:connector-curvature="0"
           id="path11241"
           d="m -92.623645,353.20017 a 3.16172,9.6592229 0 0 0 -0.07767,0.008 3.16172,9.6592229 0 0 0 -2.62922,5.12183 h 1.712802 a 3.16172,9.6592229 0 0 1 1.931318,-4.76174 3.16172,9.6592229 0 0 0 -0.937229,-0.36829 z"
           style="opacity:0.98999999;fill:#808080;fill-opacity:1;stroke:none;stroke-width:2.88242722;stroke-linecap:round;stroke-linejoin:miter;stroke-miterlimit:4;stroke-dasharray:none;stroke-dashoffset:3.77952766;stroke-opacity:1;paint-order:normal" />
        <rect
           style="opacity:1;fill:#2d4d96;fill-opacity:1;fill-rule:nonzero;stroke:none;stroke-width:0.82082975;stroke-linecap:round;stroke-miterlimit:4;stroke-dasharray:none;stroke-dashoffset:0;stroke-opacity:1"
           id="rect11243"
           width="26.395599"
           height="4.3101444"
           x="-95.334053"
           y="358.32938" />
        <path
           inkscape:connector-curvature="0"
           id="path11245"
           d="m -95.345999,363.12082 v 2.7637 19.43225 5.13474 c 0,1.53124 1.246905,2.76407 2.796079,2.76407 h 20.803359 c 1.549172,0 2.796077,-1.23283 2.796077,-2.76407 v -5.13474 -19.43225 -2.7637 h -2.796077 -20.803359 z"
           style="opacity:0.98999999;fill:#355ab0;fill-opacity:1;stroke:none;stroke-width:3.18392801;stroke-linecap:round;stroke-linejoin:miter;stroke-miterlimit:4;stroke-dasharray:none;stroke-dashoffset:3.77952766;stroke-opacity:1;paint-order:normal" />
        <path
           style="opacity:0.98999999;fill:#4989f4;fill-opacity:0.99215686;stroke:none;stroke-width:3.20909429;stroke-linecap:round;stroke-linejoin:miter;stroke-miterlimit:4;stroke-dasharray:none;stroke-dashoffset:3.77952766;stroke-opacity:1;paint-order:normal"
           d="m -93.604355,361.05169 v 2.80757 19.74065 5.21624 c 0,1.55554 1.246906,2.80794 2.79608,2.80794 h 20.803358 c 1.549172,0 2.796077,-1.2524 2.796077,-2.80794 v -5.21624 -19.74065 -2.80757 h -2.796077 -20.803358 z"
           id="path11247"
           inkscape:connector-curvature="0" />
        <path
           inkscape:connector-curvature="0"
           id="path11249"
           d="m -77.282747,365.07607 -2.154268,2.14651 v 4.31014 l 2.154268,-2.14651 z"
           style="fill:#666666;fill-opacity:1;stroke:none;stroke-width:0.28675452px;stroke-linecap:butt;stroke-linejoin:miter;stroke-opacity:1" />
        <path
           style="fill:#0f4b8a;fill-opacity:1;stroke:none;stroke-width:0.28675452px;stroke-linecap:butt;stroke-linejoin:miter;stroke-opacity:1"
           d="m -83.452286,367.22258 2.154268,-2.14651 h 4.292509 v 4.31014 l -2.154267,2.14651 h -4.29251 z"
           id="path11251"
           inkscape:connector-curvature="0" />
        <path
           style="fill:#666666;fill-opacity:1;stroke:none;stroke-width:0.28675452px;stroke-linecap:butt;stroke-linejoin:miter;stroke-opacity:1"
           d="m -81.298018,365.07607 -2.154268,2.14651 v 4.31014 l 2.154268,-2.14651 z"
           id="path11253"
           inkscape:connector-curvature="0" />
        <path
           inkscape:connector-curvature="0"
           id="path11255"
           d="m -87.463072,367.22259 2.154268,-2.14651 h 4.292509 v 4.31014 l -2.154267,2.14651 h -4.29251 z"
           style="fill:#404040;fill-opacity:1;stroke:none;stroke-width:0.28675452px;stroke-linecap:butt;stroke-linejoin:miter;stroke-opacity:1" />
        <rect
           style="opacity:1;fill:#1875d5;fill-opacity:1;fill-rule:nonzero;stroke:none;stroke-width:0.33101138;stroke-linecap:round;stroke-miterlimit:4;stroke-dasharray:none;stroke-dashoffset:0;stroke-opacity:1"
           id="rect11257"
           width="4.2925091"
           height="4.3101444"
           x="-85.308739"
           y="365.07614" />
        <rect
           y="365.36349"
           x="-85.022575"
           height="3.7354584"
           width="3.7201743"
           id="rect11259"
           style="opacity:1;fill:#ffffff;fill-opacity:1;fill-rule:nonzero;stroke:none;stroke-width:0.28687656;stroke-linecap:round;stroke-miterlimit:4;stroke-dasharray:none;stroke-dashoffset:0;stroke-opacity:1" />
        <path
           inkscape:connector-curvature="0"
           id="path11261"
           d="m -85.308804,365.07608 -2.154268,2.14651 v 4.31014 l 2.154268,-2.14651 z"
           style="fill:#1259a3;fill-opacity:1;stroke:none;stroke-width:0.28675452px;stroke-linecap:butt;stroke-linejoin:miter;stroke-opacity:1" />
        <path
           inkscape:connector-curvature="0"
           id="path11265"
           d="m -87.461387,371.25018 2.154267,-2.1465 h 4.29251 v 4.31014 l -2.154268,2.14651 h -4.292509 z"
           style="fill:#404040;fill-opacity:1;stroke:none;stroke-width:0.28675452px;stroke-linecap:butt;stroke-linejoin:miter;stroke-opacity:1" />
        <rect
           style="opacity:1;fill:#1875d5;fill-opacity:1;fill-rule:nonzero;stroke:none;stroke-width:0.33101138;stroke-linecap:round;stroke-miterlimit:4;stroke-dasharray:none;stroke-dashoffset:0;stroke-opacity:1"
           id="rect11267"
           width="4.2925091"
           height="4.3101444"
           x="-85.307053"
           y="369.10376" />
        <rect
           y="369.39108"
           x="-85.020889"
           height="3.7354584"
           width="3.7201743"
           id="rect11269"
           style="opacity:1;fill:#ffffff;fill-opacity:1;fill-rule:nonzero;stroke:none;stroke-width:0.28687656;stroke-linecap:round;stroke-miterlimit:4;stroke-dasharray:none;stroke-dashoffset:0;stroke-opacity:1" />
        <path
           inkscape:connector-curvature="0"
           id="path11271"
           d="m -85.30712,369.10368 -2.154267,2.1465 v 4.31015 l 2.154267,-2.14651 z"
           style="fill:#666666;fill-opacity:1;stroke:none;stroke-width:0.28675452px;stroke-linecap:butt;stroke-linejoin:miter;stroke-opacity:1" />
        <path
           style="fill:#404040;fill-opacity:1;stroke:none;stroke-width:0.28675452px;stroke-linecap:butt;stroke-linejoin:miter;stroke-opacity:1"
           d="m -87.461387,375.27189 2.154267,-2.14651 h 4.29251 v 4.31014 l -2.154268,2.14652 h -4.292509 z"
           id="path11275"
           inkscape:connector-curvature="0" />
        <rect
           y="373.12546"
           x="-85.307053"
           height="4.3101444"
           width="4.2925091"
           id="rect11277"
           style="opacity:1;fill:#1875d5;fill-opacity:1;fill-rule:nonzero;stroke:none;stroke-width:0.33101138;stroke-linecap:round;stroke-miterlimit:4;stroke-dasharray:none;stroke-dashoffset:0;stroke-opacity:1" />
        <rect
           style="opacity:1;fill:#ffffff;fill-opacity:1;fill-rule:nonzero;stroke:none;stroke-width:0.28687656;stroke-linecap:round;stroke-miterlimit:4;stroke-dasharray:none;stroke-dashoffset:0;stroke-opacity:1"
           id="rect11279"
           width="3.7201743"
           height="3.7354584"
           x="-85.020889"
           y="373.41278" />
        <path
           style="fill:#666666;fill-opacity:1;stroke:none;stroke-width:0.28675452px;stroke-linecap:butt;stroke-linejoin:miter;stroke-opacity:1"
           d="m -85.30712,373.12538 -2.154267,2.14651 v 4.31015 l 2.154267,-2.14652 z"
           id="path11281"
           inkscape:connector-curvature="0" />
        <path
           inkscape:connector-curvature="0"
           id="path11285"
           d="m -87.461387,379.29676 2.154267,-2.14651 h 4.29251 v 4.31014 l -2.154268,2.14651 h -4.292509 z"
           style="fill:#404040;fill-opacity:1;stroke:none;stroke-width:0.28675452px;stroke-linecap:butt;stroke-linejoin:miter;stroke-opacity:1" />
        <rect
           style="opacity:1;fill:#1875d5;fill-opacity:1;fill-rule:nonzero;stroke:none;stroke-width:0.33101138;stroke-linecap:round;stroke-miterlimit:4;stroke-dasharray:none;stroke-dashoffset:0;stroke-opacity:1"
           id="rect11287"
           width="4.2925091"
           height="4.3101444"
           x="-85.307053"
           y="377.15033" />
        <rect
           y="377.43765"
           x="-85.020889"
           height="3.7354584"
           width="3.7201743"
           id="rect11289"
           style="opacity:1;fill:#ffffff;fill-opacity:1;fill-rule:nonzero;stroke:none;stroke-width:0.28687656;stroke-linecap:round;stroke-miterlimit:4;stroke-dasharray:none;stroke-dashoffset:0;stroke-opacity:1" />
        <path
           inkscape:connector-curvature="0"
           id="path11291"
           d="m -85.30712,377.15025 -2.154267,2.14651 v 4.31014 l 2.154267,-2.14651 z"
           style="fill:#666666;fill-opacity:1;stroke:none;stroke-width:0.28675452px;stroke-linecap:butt;stroke-linejoin:miter;stroke-opacity:1" />
        <path
           style="fill:#404040;fill-opacity:1;stroke:none;stroke-width:0.28675452px;stroke-linecap:butt;stroke-linejoin:miter;stroke-opacity:1"
           d="m -91.469784,371.25018 2.154267,-2.1465 h 4.29251 v 4.31014 l -2.154268,2.14651 h -4.292509 z"
           id="path11295"
           inkscape:connector-curvature="0" />
        <rect
           y="369.10376"
           x="-89.315453"
           height="4.3101444"
           width="4.2925091"
           id="rect11297"
           style="opacity:1;fill:#1875d5;fill-opacity:1;fill-rule:nonzero;stroke:none;stroke-width:0.33101138;stroke-linecap:round;stroke-miterlimit:4;stroke-dasharray:none;stroke-dashoffset:0;stroke-opacity:1" />
        <rect
           style="opacity:1;fill:#ffffff;fill-opacity:1;fill-rule:nonzero;stroke:none;stroke-width:0.28687656;stroke-linecap:round;stroke-miterlimit:4;stroke-dasharray:none;stroke-dashoffset:0;stroke-opacity:1"
           id="rect11299"
           width="3.7201743"
           height="3.7354584"
           x="-89.029282"
           y="369.39108" />
        <path
           style="fill:#1259a3;fill-opacity:1;stroke:none;stroke-width:0.28675452px;stroke-linecap:butt;stroke-linejoin:miter;stroke-opacity:1"
           d="m -89.315517,369.10368 -2.154267,2.1465 v 4.31015 l 2.154267,-2.14651 z"
           id="path11301"
           inkscape:connector-curvature="0" />
        <path
           inkscape:connector-curvature="0"
           id="path11305"
           d="m -91.469784,375.27189 2.154267,-2.14651 h 4.29251 v 4.31014 l -2.154268,2.14652 h -4.292509 z"
           style="fill:#404040;fill-opacity:1;stroke:none;stroke-width:0.28675452px;stroke-linecap:butt;stroke-linejoin:miter;stroke-opacity:1" />
        <rect
           style="opacity:1;fill:#1875d5;fill-opacity:1;fill-rule:nonzero;stroke:none;stroke-width:0.33101138;stroke-linecap:round;stroke-miterlimit:4;stroke-dasharray:none;stroke-dashoffset:0;stroke-opacity:1"
           id="rect11307"
           width="4.2925091"
           height="4.3101444"
           x="-89.315453"
           y="373.12546" />
        <rect
           y="373.41278"
           x="-89.029282"
           height="3.7354584"
           width="3.7201743"
           id="rect11309"
           style="opacity:1;fill:#ffffff;fill-opacity:1;fill-rule:nonzero;stroke:none;stroke-width:0.28687656;stroke-linecap:round;stroke-miterlimit:4;stroke-dasharray:none;stroke-dashoffset:0;stroke-opacity:1" />
        <path
           inkscape:connector-curvature="0"
           id="path11311"
           d="m -89.315517,373.12538 -2.154267,2.14651 v 4.31015 l 2.154267,-2.14652 z"
           style="fill:#1259a3;fill-opacity:1;stroke:none;stroke-width:0.28675452px;stroke-linecap:butt;stroke-linejoin:miter;stroke-opacity:1" />
        <path
           style="fill:#0f4b8a;fill-opacity:1;stroke:none;stroke-width:0.28675452px;stroke-linecap:butt;stroke-linejoin:miter;stroke-opacity:1"
           d="m -91.469784,379.29676 2.154267,-2.14651 h 4.29251 v 4.31014 l -2.154268,2.14651 h -4.292509 z"
           id="path11315"
           inkscape:connector-curvature="0" />
        <rect
           y="377.15033"
           x="-89.315453"
           height="4.3101444"
           width="4.2925091"
           id="rect11317"
           style="opacity:1;fill:#1875d5;fill-opacity:1;fill-rule:nonzero;stroke:none;stroke-width:0.33101138;stroke-linecap:round;stroke-miterlimit:4;stroke-dasharray:none;stroke-dashoffset:0;stroke-opacity:1" />
        <rect
           style="opacity:1;fill:#ffffff;fill-opacity:1;fill-rule:nonzero;stroke:none;stroke-width:0.28687656;stroke-linecap:round;stroke-miterlimit:4;stroke-dasharray:none;stroke-dashoffset:0;stroke-opacity:1"
           id="rect11319"
           width="3.7201743"
           height="3.7354584"
           x="-89.029282"
           y="377.43765" />
        <path
           style="fill:#1259a3;fill-opacity:1;stroke:none;stroke-width:0.28675452px;stroke-linecap:butt;stroke-linejoin:miter;stroke-opacity:1"
           d="m -89.315517,377.15025 -2.154267,2.14651 v 4.31014 l 2.154267,-2.14651 z"
           id="path11321"
           inkscape:connector-curvature="0" />
        <path
           style="fill:#0f4b8a;fill-opacity:1;stroke:none;stroke-width:0.28675452px;stroke-linecap:butt;stroke-linejoin:miter;stroke-opacity:1"
           d="m -75.427024,367.22258 2.154267,-2.14651 h 4.29251 v 4.31014 l -2.154268,2.14651 h -4.292509 z"
           id="path11325"
           inkscape:connector-curvature="0" />
        <rect
           y="365.07614"
           x="-73.27269"
           height="4.3101444"
           width="4.2925091"
           id="rect11327"
           style="opacity:1;fill:#1875d5;fill-opacity:1;fill-rule:nonzero;stroke:none;stroke-width:0.33101138;stroke-linecap:round;stroke-miterlimit:4;stroke-dasharray:none;stroke-dashoffset:0;stroke-opacity:1" />
        <rect
           style="opacity:1;fill:#ffffff;fill-opacity:1;fill-rule:nonzero;stroke:none;stroke-width:0.28687656;stroke-linecap:round;stroke-miterlimit:4;stroke-dasharray:none;stroke-dashoffset:0;stroke-opacity:1"
           id="rect11329"
           width="3.7201743"
           height="3.7354584"
           x="-72.986519"
           y="365.36346" />
        <path
           style="fill:#666666;fill-opacity:1;stroke:none;stroke-width:0.28675452px;stroke-linecap:butt;stroke-linejoin:miter;stroke-opacity:1"
           d="m -73.272757,365.07607 -2.154267,2.14651 v 4.31014 l 2.154267,-2.14651 z"
           id="path11331"
           inkscape:connector-curvature="0" />
        <path
           style="fill:#0f4b8a;fill-opacity:1;stroke:none;stroke-width:0.28675452px;stroke-linecap:butt;stroke-linejoin:miter;stroke-opacity:1"
           d="m -75.427022,383.31508 2.154267,-2.14651 h 4.29251 v 4.31014 l -2.154268,2.14651 h -4.292509 z"
           id="path11333"
           inkscape:connector-curvature="0" />
        <rect
           y="381.16864"
           x="-73.27269"
           height="4.3101444"
           width="4.2925091"
           id="rect11335"
           style="opacity:1;fill:#1875d5;fill-opacity:1;fill-rule:nonzero;stroke:none;stroke-width:0.33101138;stroke-linecap:round;stroke-miterlimit:4;stroke-dasharray:none;stroke-dashoffset:0;stroke-opacity:1" />
        <rect
           style="opacity:1;fill:#ffffff;fill-opacity:1;fill-rule:nonzero;stroke:none;stroke-width:0.28687656;stroke-linecap:round;stroke-miterlimit:4;stroke-dasharray:none;stroke-dashoffset:0;stroke-opacity:1"
           id="rect11337"
           width="3.7201743"
           height="3.7354584"
           x="-72.986519"
           y="381.45599" />
        <path
           style="fill:#666666;fill-opacity:1;stroke:none;stroke-width:0.28675452px;stroke-linecap:butt;stroke-linejoin:miter;stroke-opacity:1"
           d="m -73.272755,381.16857 -2.154267,2.14651 v 4.31014 l 2.154267,-2.14651 z"
           id="path11339"
           inkscape:connector-curvature="0" />
        <path
           inkscape:connector-curvature="0"
           id="path11343"
           d="m -79.434973,383.31508 2.154268,-2.14651 h 4.292509 v 4.31014 l -2.154267,2.14651 h -4.29251 z"
           style="fill:#0f4b8a;fill-opacity:1;stroke:none;stroke-width:0.28675452px;stroke-linecap:butt;stroke-linejoin:miter;stroke-opacity:1" />
        <rect
           style="opacity:1;fill:#1875d5;fill-opacity:1;fill-rule:nonzero;stroke:none;stroke-width:0.33101138;stroke-linecap:round;stroke-miterlimit:4;stroke-dasharray:none;stroke-dashoffset:0;stroke-opacity:1"
           id="rect11345"
           width="4.2925091"
           height="4.3101444"
           x="-77.28064"
           y="381.16864" />
        <rect
           y="381.45599"
           x="-76.994476"
           height="3.7354584"
           width="3.7201743"
           id="rect11347"
           style="opacity:1;fill:#ffffff;fill-opacity:1;fill-rule:nonzero;stroke:none;stroke-width:0.28687656;stroke-linecap:round;stroke-miterlimit:4;stroke-dasharray:none;stroke-dashoffset:0;stroke-opacity:1" />
        <path
           inkscape:connector-curvature="0"
           id="path11349"
           d="m -77.280705,381.16857 -2.154268,2.14651 v 4.31014 l 2.154268,-2.14651 z"
           style="fill:#666666;fill-opacity:1;stroke:none;stroke-width:0.28675452px;stroke-linecap:butt;stroke-linejoin:miter;stroke-opacity:1" />
        <path
           inkscape:connector-curvature="0"
           id="path11353"
           d="m -83.44132,383.31508 2.154267,-2.14651 h 4.29251 v 4.31014 l -2.154268,2.14651 h -4.292509 z"
           style="fill:#0f4b8a;fill-opacity:1;stroke:none;stroke-width:0.28675452px;stroke-linecap:butt;stroke-linejoin:miter;stroke-opacity:1" />
        <rect
           style="opacity:1;fill:#1875d5;fill-opacity:1;fill-rule:nonzero;stroke:none;stroke-width:0.33101138;stroke-linecap:round;stroke-miterlimit:4;stroke-dasharray:none;stroke-dashoffset:0;stroke-opacity:1"
           id="rect11355"
           width="4.2925091"
           height="4.3101444"
           x="-81.286987"
           y="381.16864" />
        <rect
           y="381.45599"
           x="-81.000816"
           height="3.7354584"
           width="3.7201743"
           id="rect11357"
           style="opacity:1;fill:#ffffff;fill-opacity:1;fill-rule:nonzero;stroke:none;stroke-width:0.28687656;stroke-linecap:round;stroke-miterlimit:4;stroke-dasharray:none;stroke-dashoffset:0;stroke-opacity:1" />
        <path
           inkscape:connector-curvature="0"
           id="path11359"
           d="m -81.287053,381.16857 -2.154267,2.14651 v 4.31014 l 2.154267,-2.14651 z"
           style="fill:#666666;fill-opacity:1;stroke:none;stroke-width:0.28675452px;stroke-linecap:butt;stroke-linejoin:miter;stroke-opacity:1" />
        <path
           sodipodi:nodetypes="ccccccc"
           style="fill:#0f4b8a;fill-opacity:1;stroke:none;stroke-width:0.28675452px;stroke-linecap:butt;stroke-linejoin:miter;stroke-opacity:1"
           d="m -87.44925,383.60728 2.154267,-2.14651 4.292509,-0.2922 v 4.31014 l -2.154267,2.14651 h -4.292509 z"
           id="path11363"
           inkscape:connector-curvature="0" />
        <rect
           y="381.16864"
           x="-85.294922"
           height="4.3101444"
           width="4.2925091"
           id="rect11365"
           style="opacity:1;fill:#1875d5;fill-opacity:1;fill-rule:nonzero;stroke:none;stroke-width:0.33101138;stroke-linecap:round;stroke-miterlimit:4;stroke-dasharray:none;stroke-dashoffset:0;stroke-opacity:1" />
        <rect
           style="opacity:1;fill:#ffffff;fill-opacity:1;fill-rule:nonzero;stroke:none;stroke-width:0.28687656;stroke-linecap:round;stroke-miterlimit:4;stroke-dasharray:none;stroke-dashoffset:0;stroke-opacity:1"
           id="rect11367"
           width="3.7201743"
           height="3.7354584"
           x="-85.008751"
           y="381.45599" />
        <path
           sodipodi:nodetypes="ccccc"
           style="fill:#1259a3;fill-opacity:1;stroke:none;stroke-width:0.28675452px;stroke-linecap:butt;stroke-linejoin:miter;stroke-opacity:1"
           d="m -85.294983,381.46077 -2.154267,2.14651 v 4.01794 l 2.154267,-2.14651 z"
           id="path11369"
           inkscape:connector-curvature="0" />
        <path
           sodipodi:nodetypes="ccccccc"
           inkscape:connector-curvature="0"
           id="path11373"
           d="m -79.422475,367.22258 2.154265,-2.14651 h 4.292502 l -0.295117,4.31014 -2.154267,2.14651 h -3.997383 z"
           style="fill:#0f4b8a;fill-opacity:1;stroke:none;stroke-width:0.28675452px;stroke-linecap:butt;stroke-linejoin:miter;stroke-opacity:1" />
        <rect
           style="opacity:1;fill:#1875d5;fill-opacity:1;fill-rule:nonzero;stroke:none;stroke-width:0.33101141;stroke-linecap:round;stroke-miterlimit:4;stroke-dasharray:none;stroke-dashoffset:0;stroke-opacity:1"
           id="rect11375"
           width="4.2925091"
           height="4.3101444"
           x="-77.282646"
           y="365.07614" />
        <rect
           y="365.36346"
           x="-76.996475"
           height="3.7354586"
           width="3.7201748"
           id="rect11377"
           style="opacity:1;fill:#ffffff;fill-opacity:1;fill-rule:nonzero;stroke:none;stroke-width:0.28687656;stroke-linecap:round;stroke-miterlimit:4;stroke-dasharray:none;stroke-dashoffset:0;stroke-opacity:1" />
        <rect
           y="365.07614"
           x="-81.297928"
           height="4.3101444"
           width="4.2925091"
           id="rect11379"
           style="opacity:1;fill:#1875d5;fill-opacity:1;fill-rule:nonzero;stroke:none;stroke-width:0.33101141;stroke-linecap:round;stroke-miterlimit:4;stroke-dasharray:none;stroke-dashoffset:0;stroke-opacity:1" />
        <rect
           style="opacity:1;fill:#ffffff;fill-opacity:1;fill-rule:nonzero;stroke:none;stroke-width:0.28687656;stroke-linecap:round;stroke-miterlimit:4;stroke-dasharray:none;stroke-dashoffset:0;stroke-opacity:1"
           id="rect11381"
           width="3.7201748"
           height="3.7354586"
           x="-81.011765"
           y="365.36346" />
        <rect
           y="356.21756"
           x="-93.603447"
           height="4.3101444"
           width="26.395599"
           id="rect11383"
           style="opacity:1;fill:#3e6bd1;fill-opacity:1;fill-rule:nonzero;stroke:none;stroke-width:0.82082975;stroke-linecap:round;stroke-miterlimit:4;stroke-dasharray:none;stroke-dashoffset:0;stroke-opacity:1" />
        <path
           d="m -87.818957,358.37262 a 1.094053,1.1463108 0 0 1 -1.075999,1.14615 1.094053,1.1463108 0 0 1 -1.111511,-1.10832 1.094053,1.1463108 0 0 1 1.039317,-1.18274 1.094053,1.1463108 0 0 1 1.145811,1.0693"
           sodipodi:open="true"
           sodipodi:end="6.217177"
           sodipodi:start="0"
           sodipodi:ry="1.1463108"
           sodipodi:rx="1.094053"
           sodipodi:cy="358.37262"
           sodipodi:cx="-88.91301"
           sodipodi:type="arc"
           id="path11385"
           style="opacity:0.98999999;fill:#ffffff;fill-opacity:1;stroke:none;stroke-width:2.88242722;stroke-linecap:round;stroke-linejoin:miter;stroke-miterlimit:4;stroke-dasharray:none;stroke-dashoffset:3.77952766;stroke-opacity:1;paint-order:normal" />
        <path
           style="opacity:0.98999999;fill:#ffffff;fill-opacity:1;stroke:none;stroke-width:2.88242722;stroke-linecap:round;stroke-linejoin:miter;stroke-miterlimit:4;stroke-dasharray:none;stroke-dashoffset:3.77952766;stroke-opacity:1;paint-order:normal"
           id="path11387"
           sodipodi:type="arc"
           sodipodi:cx="-71.187202"
           sodipodi:cy="358.37262"
           sodipodi:rx="1.094053"
           sodipodi:ry="1.1463108"
           sodipodi:start="0"
           sodipodi:end="6.217177"
           sodipodi:open="true"
           d="m -70.093149,358.37262 a 1.094053,1.1463108 0 0 1 -1.076,1.14615 1.094053,1.1463108 0 0 1 -1.111511,-1.10832 1.094053,1.1463108 0 0 1 1.039317,-1.18274 1.094053,1.1463108 0 0 1 1.145811,1.0693" />
        <path
           inkscape:connector-curvature="0"
           id="path11389"
           d="m -91.586079,353.00875 c -0.676668,0.0207 -1.274288,0.23508 -1.274288,0.23508 0,0 0.36557,-0.0817 0.654423,0.0131 0.259086,0.085 0.519528,0.31158 0.519528,0.31158 a 3.16172,9.6592229 0 0 1 1.953983,4.90317 0.84116987,0.88134854 0 0 0 0.846553,0.7642 0.84116987,0.88134854 0 0 0 0.827601,-0.881 l -0.0018,-0.0582 a 0.84116987,0.88134854 0 0 0 -0.01264,-0.0981 l 0.0089,-0.002 a 3.16172,9.6592229 0 0 0 -2.011586,-4.70913 l 0.01114,-8.1e-4 c 0,0 -0.519588,-0.4297 -1.22858,-0.4739 -0.09839,-0.006 -0.196544,-0.007 -0.293209,-0.004 z"
           style="opacity:0.98999999;fill:#b3b3b3;fill-opacity:1;stroke:none;stroke-width:2.88242722;stroke-linecap:round;stroke-linejoin:miter;stroke-miterlimit:4;stroke-dasharray:none;stroke-dashoffset:3.77952766;stroke-opacity:1;paint-order:normal" />
        <path
           inkscape:connector-curvature="0"
           style="opacity:0.98999999;fill:#b3b3b3;fill-opacity:0.99215686;stroke:none;stroke-width:2.88242722;stroke-linecap:round;stroke-linejoin:miter;stroke-miterlimit:4;stroke-dasharray:none;stroke-dashoffset:3.77952766;stroke-opacity:1;paint-order:normal"
           d="m -73.88152,353.00875 c -0.676667,0.0207 -1.274288,0.23508 -1.274288,0.23508 0,0 0.365571,-0.0817 0.654424,0.0131 0.259086,0.085 0.519528,0.31158 0.519528,0.31158 a 3.16172,9.6592229 0 0 1 1.953983,4.90317 0.84116987,0.88134854 0 0 0 0.846553,0.7642 0.84116987,0.88134854 0 0 0 0.827601,-0.881 l -0.0018,-0.0582 a 0.84116987,0.88134854 0 0 0 -0.01264,-0.0981 l 0.0089,-0.002 a 3.16172,9.6592229 0 0 0 -2.011587,-4.70913 l 0.01114,-8.1e-4 c 0,0 -0.519589,-0.4297 -1.228581,-0.4739 -0.09839,-0.006 -0.196543,-0.007 -0.293209,-0.004 z"
           id="path11391" />
        <path
           d="m -79.37649,358.37262 a 1.094053,1.1463108 0 0 1 -1.076,1.14615 1.094053,1.1463108 0 0 1 -1.11151,-1.10832 1.094053,1.1463108 0 0 1 1.039317,-1.18274 1.094053,1.1463108 0 0 1 1.145811,1.0693"
           sodipodi:open="true"
           sodipodi:end="6.217177"
           sodipodi:start="0"
           sodipodi:ry="1.1463108"
           sodipodi:rx="1.094053"
           sodipodi:cy="358.37262"
           sodipodi:cx="-80.470543"
           sodipodi:type="arc"
           id="path11393"
           style="opacity:0.98999999;fill:#ffffff;fill-opacity:1;stroke:none;stroke-width:2.88242722;stroke-linecap:round;stroke-linejoin:miter;stroke-miterlimit:4;stroke-dasharray:none;stroke-dashoffset:3.77952766;stroke-opacity:1;paint-order:normal" />
        <path
           id="path11395"
           d="m -83.164867,353.00875 c -0.676668,0.0207 -1.274288,0.23508 -1.274288,0.23508 0,0 0.36557,-0.0817 0.654423,0.0131 0.259086,0.085 0.519528,0.31158 0.519528,0.31158 a 3.16172,9.6592229 0 0 1 1.953983,4.90317 0.84116987,0.88134854 0 0 0 0.846553,0.7642 0.84116987,0.88134854 0 0 0 0.827601,-0.881 l -0.0018,-0.0582 a 0.84116987,0.88134854 0 0 0 -0.01264,-0.0981 l 0.0089,-0.002 a 3.16172,9.6592229 0 0 0 -2.011586,-4.70913 l 0.01114,-8.1e-4 c 0,0 -0.519588,-0.4297 -1.22858,-0.4739 -0.09839,-0.006 -0.196544,-0.007 -0.293209,-0.004 z"
           style="opacity:0.98999999;fill:#b3b3b3;fill-opacity:0.99215686;stroke:none;stroke-width:2.88242722;stroke-linecap:round;stroke-linejoin:miter;stroke-miterlimit:4;stroke-dasharray:none;stroke-dashoffset:3.77952766;stroke-opacity:1;paint-order:normal"
           inkscape:connector-curvature="0" />
      </g>
    </g>
  </g>
</svg>
